[
    {
        "start": {
            "timestamp": {
                "n": 0,
                "pts": 0,
                "pts_time": 0
            },
            "event": {
                "type": "start_marker",
                "trial_type": "animation",
                "trial_index": "trial-1-1"
            }
        },
        "end": {
            "timestamp": {
                "n": 90,
                "pts": 90,
                "pts_time": 3
            },
            "event": {
                "type": "end_marker",
                "trial_type": "animation",
                "trial_index": "0",
                "time_elapsed": "3003"
            }
        }
    },
    {
        "start": {
            "timestamp": {
                "n": 91,
                "pts": 91,
                "pts_time": 3.03333
            },
            "event": {
                "type": "start_marker",
                "trial_type": "disks",
                "trial_index": "disk-condition-1-1"
            }
        },
        "end": {
            "timestamp": {
                "n": 332,
                "pts": 332,
                "pts_time": 11.0667
            },
            "event": {
                "type": "end_marker",
                "trial_type": "disks",
                "trial_index": "1",
                "time_elapsed": "11076"
            }
        }
    },
    {
        "start": {
            "timestamp": {
                "n": 333,
                "pts": 333,
                "pts_time": 11.1
            },
            "event": {
                "type": "start_marker",
                "trial_type": "animation",
                "trial_index": "trial-1-3"
            }
        },
        "end": {
            "timestamp": {
                "n": 422,
                "pts": 422,
                "pts_time": 14.0667
            },
            "event": {
                "type": "end_marker",
                "trial_type": "animation",
                "trial_index": "2",
                "time_elapsed": "14079"
            }
        }
    },
    {
        "start": {
            "timestamp": {
                "n": 423,
                "pts": 423,
                "pts_time": 14.1
            },
            "event": {
                "type": "start_marker",
                "trial_type": "disks",
                "trial_index": "disk-condition-1-1"
            }
        },
        "end": {
            "timestamp": {
                "n": 664,
                "pts": 664,
                "pts_time": 22.1333
            },
            "event": {
                "type": "end_marker",
                "trial_type": "disks",
                "trial_index": "3",
                "time_elapsed": "22133"
            }
        }
    },
    {
        "start": {
            "timestamp": {
                "n": 665,
                "pts": 665,
                "pts_time": 22.1667
            },
            "event": {
                "type": "start_marker",
                "trial_type": "animation",
                "trial_index": "trial-1-5"
            }
        },
        "end": {
            "timestamp": {
                "n": 754,
                "pts": 754,
                "pts_time": 25.1333
            },
            "event": {
                "type": "end_marker",
                "trial_type": "animation",
                "trial_index": "4",
                "time_elapsed": "25136"
            }
        }
    },
    {
        "start": {
            "timestamp": {
                "n": 755,
                "pts": 755,
                "pts_time": 25.1667
            },
            "event": {
                "type": "start_marker",
                "trial_type": "disks",
                "trial_index": "disk-condition-1-1"
            }
        },
        "end": {
            "timestamp": {
                "n": 995,
                "pts": 995,
                "pts_time": 33.1667
            },
            "event": {
                "type": "end_marker",
                "trial_type": "disks",
                "trial_index": "5",
                "time_elapsed": "33182"
            }
        }
    },
    {
        "start": {
            "timestamp": {
                "n": 996,
                "pts": 996,
                "pts_time": 33.2
            },
            "event": {
                "type": "start_marker",
                "trial_type": "animation",
                "trial_index": "trial-1-7"
            }
        },
        "end": {
            "timestamp": {
                "n": 1086,
                "pts": 1086,
                "pts_time": 36.2
            },
            "event": {
                "type": "end_marker",
                "trial_type": "animation",
                "trial_index": "6",
                "time_elapsed": "36185"
            }
        }
    },
    {
        "start": {
            "timestamp": {
                "n": 1087,
                "pts": 1087,
                "pts_time": 36.2333
            },
            "event": {
                "type": "start_marker",
                "trial_type": "disks",
                "trial_index": "disk-condition-1-1"
            }
        },
        "end": {
            "timestamp": {
                "n": 1326,
                "pts": 1326,
                "pts_time": 44.2
            },
            "event": {
                "type": "end_marker",
                "trial_type": "disks",
                "trial_index": "7",
                "time_elapsed": "44230"
            }
        }
    },
    {
        "start": {
            "timestamp": {
                "n": 1327,
                "pts": 1327,
                "pts_time": 44.2333
            },
            "event": {
                "type": "start_marker",
                "trial_type": "animation",
                "trial_index": "trial-1-9"
            }
        },
        "end": {
            "timestamp": {
                "n": 1416,
                "pts": 1416,
                "pts_time": 47.2
            },
            "event": {
                "type": "end_marker",
                "trial_type": "animation",
                "trial_index": "8",
                "time_elapsed": "47234"
            }
        }
    },
    {
        "start": {
            "timestamp": {
                "n": 1417,
                "pts": 1417,
                "pts_time": 47.2333
            },
            "event": {
                "type": "start_marker",
                "trial_type": "disks",
                "trial_index": "disk-condition-1-1"
            }
        },
        "end": {
            "timestamp": {
                "n": 1658,
                "pts": 1658,
                "pts_time": 55.2667
            },
            "event": {
                "type": "end_marker",
                "trial_type": "disks",
                "trial_index": "9",
                "time_elapsed": "55278"
            }
        }
    },
    {
        "start": {
            "timestamp": {
                "n": 1659,
                "pts": 1659,
                "pts_time": 55.3
            },
            "event": {
                "type": "start_marker",
                "trial_type": "animation",
                "trial_index": "trial-1-11"
            }
        },
        "end": {
            "timestamp": {
                "n": 1748,
                "pts": 1748,
                "pts_time": 58.2667
            },
            "event": {
                "type": "end_marker",
                "trial_type": "animation",
                "trial_index": "10",
                "time_elapsed": "58281"
            }
        }
    },
    {
        "start": {
            "timestamp": {
                "n": 1749,
                "pts": 1749,
                "pts_time": 58.3
            },
            "event": {
                "type": "start_marker",
                "trial_type": "disks",
                "trial_index": "disk-condition-1-1"
            }
        },
        "end": {
            "timestamp": {
                "n": 1989,
                "pts": 1989,
                "pts_time": 66.3
            },
            "event": {
                "type": "end_marker",
                "trial_type": "disks",
                "trial_index": "11",
                "time_elapsed": "66324"
            }
        }
    },
    {
        "start": {
            "timestamp": {
                "n": 1990,
                "pts": 1990,
                "pts_time": 66.3333
            },
            "event": {
                "type": "start_marker",
                "trial_type": "animation",
                "trial_index": "trial-1-13"
            }
        },
        "end": {
            "timestamp": {
                "n": 2080,
                "pts": 2080,
                "pts_time": 69.3333
            },
            "event": {
                "type": "end_marker",
                "trial_type": "animation",
                "trial_index": "12",
                "time_elapsed": "69327"
            }
        }
    },
    {
        "start": {
            "timestamp": {
                "n": 2081,
                "pts": 2081,
                "pts_time": 69.3667
            },
            "event": {
                "type": "start_marker",
                "trial_type": "disks",
                "trial_index": "disk-condition-1-1"
            }
        },
        "end": {
            "timestamp": {
                "n": 2321,
                "pts": 2321,
                "pts_time": 77.3667
            },
            "event": {
                "type": "end_marker",
                "trial_type": "disks",
                "trial_index": "13",
                "time_elapsed": "77369"
            }
        }
    }
]